<svg width="182" height="154" viewBox="0 0 182 154" fill="none" xmlns="http://www.w3.org/2000/svg">
<path d="M89.4399 39.3538C93.6989 29.6431 85.8623 15.8438 82.7958 11.7551" stroke="#172F3B" stroke-width="19.4213" stroke-linecap="round"/>
<g filter="url(#filter0_f_5315_11482)">
<path d="M89.4399 39.3538C93.6989 29.6431 85.8623 15.8438 82.7958 11.7551" stroke="#224658" stroke-width="7.1552" stroke-linecap="round"/>
</g>
<path d="M124.027 27.0876C117.204 27.0876 110.836 28.4149 104.771 30.7375C100.525 28.4149 95.8252 27.0876 90.9733 27.0876C86.1214 27.0876 81.5727 28.4149 77.1757 30.7375C71.1108 28.4149 64.591 27.0876 57.9197 27.0876C25.9274 27.0876 0 55.4569 0 90.4623C0 125.468 25.9274 153.837 57.9197 153.837C64.7427 153.837 71.1108 152.51 77.1757 150.187C81.4211 152.51 86.1214 153.837 90.9733 153.837C95.8252 153.837 100.374 152.51 104.771 150.187C110.836 152.51 117.356 153.837 124.027 153.837C156.019 153.837 181.947 125.468 181.947 90.4623C181.947 55.4569 156.019 27.0876 124.027 27.0876V27.0876Z" fill="#FFAB5F"/>
<path d="M143.104 100.684C143.104 101.769 143.535 102.809 144.302 103.575C145.068 104.342 146.108 104.773 147.193 104.773C148.277 104.773 149.317 104.342 150.084 103.575C150.851 102.809 151.281 101.769 151.281 100.684C151.281 99.5998 150.851 98.5598 150.084 97.793C149.317 97.0262 148.277 96.5955 147.193 96.5955C146.108 96.5955 145.068 97.0262 144.302 97.793C143.535 98.5598 143.104 99.5998 143.104 100.684Z" fill="#444B54"/>
<path d="M121.825 148.412C119.213 148.412 116.602 148.258 113.991 147.799C111.533 147.493 109.69 145.042 110.151 142.592C110.458 140.142 112.916 138.304 115.373 138.764C117.524 139.07 119.674 139.223 121.825 139.223C146.554 139.223 166.676 119.162 166.676 94.5061C166.676 91.9027 168.673 89.9119 171.284 89.9119C173.895 89.9119 175.892 91.9027 175.892 94.5061C175.892 124.215 151.623 148.412 121.825 148.412V148.412Z" fill="#B87438"/>
<g filter="url(#filter1_f_5315_11482)">
<path d="M133.447 102.577C132.685 101.018 131.161 100.238 129.484 100.238H112.716C110.125 100.238 108.143 102.265 108.143 104.916V108.035C108.143 109.75 106.771 111.154 105.095 111.154H94.4242C92.7474 111.154 91.3755 109.75 91.3755 108.035V104.916C91.3755 102.265 89.3938 100.238 86.8024 100.238H53.2669C51.5901 100.238 50.0658 101.174 49.3036 102.577C48.5415 104.137 48.5415 105.852 49.4561 107.255C58.6021 122.225 74.3028 131.113 91.3755 131.113C108.448 131.113 124.301 122.225 133.295 107.255C134.209 106.008 134.362 104.137 133.447 102.577Z" fill="#FFD25F"/>
</g>
<g filter="url(#filter2_f_5315_11482)">
<path d="M75.0696 84.4459L65.8461 69.2117C64.9238 67.8406 63.5402 66.9265 61.8493 66.9265C60.1583 66.9265 58.7748 67.8406 57.8524 69.2117L48.6289 84.4459C47.7065 85.817 47.7065 87.6452 48.6289 89.0162C49.3975 90.3873 50.9348 91.3014 52.6257 91.3014H71.0728C72.7637 91.3014 74.301 90.3873 75.0696 89.0162C75.8383 87.4928 75.8383 85.817 75.0696 84.4459ZM133.485 84.4459L124.262 69.2117C123.339 67.8406 121.956 66.9265 120.265 66.9265C118.574 66.9265 117.19 67.8406 116.268 69.2117L107.044 84.4459C106.122 85.817 106.122 87.6452 107.044 89.0162C107.813 90.3873 109.35 91.3014 111.041 91.3014H129.488C131.179 91.3014 132.717 90.3873 133.485 89.0162C134.254 87.4928 134.254 85.817 133.485 84.4459Z" fill="#FFD25F"/>
</g>
<path d="M133.447 102.577C132.685 101.018 131.161 100.238 129.484 100.238H112.716C110.125 100.238 108.143 102.265 108.143 104.916V108.035C108.143 109.75 106.771 111.154 105.095 111.154H94.4242C92.7474 111.154 91.3755 109.75 91.3755 108.035V104.916C91.3755 102.265 89.3938 100.238 86.8024 100.238H53.2669C51.5901 100.238 50.0658 101.174 49.3036 102.577C48.5415 104.137 48.5415 105.852 49.4561 107.255C58.6021 122.225 74.3028 131.113 91.3755 131.113C108.448 131.113 124.301 122.225 133.295 107.255C134.209 106.008 134.362 104.137 133.447 102.577Z" fill="#172F3C"/>
<path d="M126.964 60.4C125.081 60.4 123.355 59.3083 122.571 57.5927C119.59 50.8865 115.668 45.116 111.119 40.7492C109.236 39.0336 109.236 36.0704 110.962 34.1989C112.688 32.3274 115.668 32.3274 117.551 34.0429C123.042 39.3456 127.748 46.2077 131.199 54.0057C132.297 56.3451 131.199 59.1523 128.689 60.0881C128.219 60.244 127.591 60.4 126.964 60.4V60.4Z" fill="#B87438"/>
<path d="M19.1029 60.4003C18.1866 60.4003 17.1177 60.0929 16.3541 59.4783C14.3689 57.9416 14.0634 55.022 15.5905 53.0243C22.4625 44.2654 31.6252 37.8115 42.0095 34.5845C43.1763 34.2446 44.429 34.3788 45.4984 34.9584C46.5679 35.538 47.3686 36.5166 47.7287 37.684C48.0887 38.8513 47.9792 40.1142 47.4238 41.2012C46.8684 42.2882 45.9113 43.1125 44.7583 43.4971C36.0538 46.263 28.4182 51.4877 22.768 58.8636C21.699 59.7856 20.3246 60.4003 19.1029 60.4003V60.4003Z" fill="white" fill-opacity="0.17"/>
<path d="M5.68762 73.8064C5.68762 74.3932 5.80321 74.9743 6.02778 75.5165C6.25236 76.0586 6.58152 76.5513 6.99648 76.9662C7.41144 77.3812 7.90407 77.7104 8.44624 77.9349C8.98841 78.1595 9.56951 78.2751 10.1563 78.2751C10.7432 78.2751 11.3243 78.1595 11.8665 77.9349C12.4086 77.7104 12.9013 77.3812 13.3162 76.9662C13.7312 76.5513 14.0603 76.0586 14.2849 75.5165C14.5095 74.9743 14.6251 74.3932 14.6251 73.8064C14.6251 73.2195 14.5095 72.6384 14.2849 72.0963C14.0603 71.5541 13.7312 71.0615 13.3162 70.6465C12.9013 70.2315 12.4086 69.9024 11.8665 69.6778C11.3243 69.4532 10.7432 69.3376 10.1563 69.3376C9.56951 69.3376 8.98841 69.4532 8.44624 69.6778C7.90407 69.9024 7.41144 70.2315 6.99648 70.6465C6.58152 71.0615 6.25236 71.5541 6.02778 72.0963C5.80321 72.6384 5.68762 73.2195 5.68762 73.8064V73.8064Z" fill="white" fill-opacity="0.17"/>
<path d="M75.0696 84.4459L65.8461 69.2117C64.9238 67.8406 63.5402 66.9265 61.8493 66.9265C60.1583 66.9265 58.7748 67.8406 57.8524 69.2117L48.6289 84.4459C47.7065 85.817 47.7065 87.6452 48.6289 89.0162C49.3975 90.3873 50.9348 91.3014 52.6257 91.3014H71.0728C72.7637 91.3014 74.301 90.3873 75.0696 89.0162C75.8383 87.4928 75.8383 85.817 75.0696 84.4459ZM133.485 84.4459L124.262 69.2117C123.339 67.8406 121.956 66.9265 120.265 66.9265C118.574 66.9265 117.19 67.8406 116.268 69.2117L107.044 84.4459C106.122 85.817 106.122 87.6452 107.044 89.0162C107.813 90.3873 109.35 91.3014 111.041 91.3014H129.488C131.179 91.3014 132.717 90.3873 133.485 89.0162C134.254 87.4928 134.254 85.817 133.485 84.4459Z" fill="#172F3C"/>
<defs>
<filter id="filter0_f_5315_11482" x="71.0406" y="-0.000128746" width="31.3942" height="51.1099" filterUnits="userSpaceOnUse" color-interpolation-filters="sRGB">
<feFlood flood-opacity="0" result="BackgroundImageFix"/>
<feBlend mode="normal" in="SourceGraphic" in2="BackgroundImageFix" result="shape"/>
<feGaussianBlur stdDeviation="4.08869" result="effect1_foregroundBlur_5315_11482"/>
</filter>
<filter id="filter1_f_5315_11482" x="37.5059" y="88.9944" width="107.8" height="53.3625" filterUnits="userSpaceOnUse" color-interpolation-filters="sRGB">
<feFlood flood-opacity="0" result="BackgroundImageFix"/>
<feBlend mode="normal" in="SourceGraphic" in2="BackgroundImageFix" result="shape"/>
<feGaussianBlur stdDeviation="5.62194" result="effect1_foregroundBlur_5315_11482"/>
</filter>
<filter id="filter2_f_5315_11482" x="36.6932" y="55.6826" width="108.612" height="46.8625" filterUnits="userSpaceOnUse" color-interpolation-filters="sRGB">
<feFlood flood-opacity="0" result="BackgroundImageFix"/>
<feBlend mode="normal" in="SourceGraphic" in2="BackgroundImageFix" result="shape"/>
<feGaussianBlur stdDeviation="5.62194" result="effect1_foregroundBlur_5315_11482"/>
</filter>
</defs>
</svg>
